version 1
nodes
0 "root" -1
1 "spine" 0
2 "spine1" 1
3 "spine2" 2
end
skeleton
time 0
0 0.000000 0.000000 0.000000 0.000000 0.000000 0.000000
1 0.000000 0.000000 20.000000 0.000000 0.000000 0.000000
2 0.000000 0.000000 40.000000 0.000000 0.000000 0.000000
3 0.000000 0.000000 55.000000 0.000000 0.000000 0.000000
end
triangles
default_material
0 0.0 0.0 0.0 0.0 0.0 0.0 0.0 0.0
0 10.0 0.0 0.0 0.0 0.0 0.0 1.0 0.0
0 0.0 10.0 0.0 0.0 0.0 0.0 0.0 1.0
default_material
0 10.0 0.0 0.0 0.0 0.0 0.0 1.0 0.0
0 10.0 10.0 0.0 0.0 0.0 0.0 1.0 1.0
0 0.0 10.0 0.0 0.0 0.0 0.0 0.0 1.0
end